HIERARCHY
ROOT Hips
{
    OFFSET   0.000000   0.000000   0.000000
    CHANNELS 6 Xposition Yposition Zposition Zrotation Xrotation Yrotation
    JOINT Chest
    {
        OFFSET   0.000000   8.007230   0.000000
        CHANNELS 3 Zrotation Xrotation Yrotation
        JOINT Chest2
        {
            OFFSET   0.000000  22.077100   0.000000
            CHANNELS 3 Zrotation Xrotation Yrotation
            JOINT Neck
            {
                OFFSET   0.000000  23.254700   0.000000
                CHANNELS 3 Zrotation Xrotation Yrotation
                JOINT Head
                {
                    OFFSET   0.000010  14.370000   1.956610
                    CHANNELS 3 Zrotation Xrotation Yrotation
                    End Site
                    {
                        OFFSET   0.000000  19.566000   0.000000
                    }
                }
            }
            JOINT LeftCollar
            {
                OFFSET   3.911900  19.017000  -0.467063
                CHANNELS 3 Zrotation Xrotation Yrotation
                JOINT LeftShoulder
                {
                    OFFSET  10.383700   0.000000   0.000000
                    CHANNELS 3 Zrotation Xrotation Yrotation
                    JOINT LeftElbow
                    {
                        OFFSET  26.662100   0.001671   0.000522
                        CHANNELS 3 Zrotation Xrotation Yrotation
                        JOINT LeftWrist
                        {
                            OFFSET  28.869000   0.000037  -0.000114
                            CHANNELS 3 Zrotation Xrotation Yrotation
                            JOINT LeftFinger0
                            {
                                OFFSET   2.044650  -2.323450   3.252850
                                CHANNELS 3 Zrotation Xrotation Yrotation
                                JOINT LeftFinger01
                                {
                                    OFFSET   3.088140   0.000000   0.000000
                                    CHANNELS 3 Zrotation Xrotation Yrotation
                                    JOINT LeftFinger02
                                    {
                                        OFFSET   2.639460   0.000000   0.000000
                                        CHANNELS 3 Zrotation Xrotation Yrotation
                                        End Site
                                        {
                                            OFFSET   2.582190   0.000000   0.000000
                                        }
                                    }
                                }
                            }
                            JOINT LeftFinger1
                            {
                                OFFSET   8.364480   0.000000   3.252850
                                CHANNELS 3 Zrotation Xrotation Yrotation
                                JOINT LeftFinger11
                                {
                                    OFFSET   4.646930   0.000000   0.000000
                                    CHANNELS 3 Zrotation Xrotation Yrotation
                                    JOINT LeftFinger12
                                    {
                                        OFFSET   2.323470   0.000000   0.000000
                                        CHANNELS 3 Zrotation Xrotation Yrotation
                                        End Site
                                        {
                                            OFFSET   2.273050   0.000000   0.000000
                                        }
                                    }
                                }
                            }
                            JOINT LeftFinger2
                            {
                                OFFSET   8.364490   0.000016   1.078090
                                CHANNELS 3 Zrotation Xrotation Yrotation
                                JOINT LeftFinger21
                                {
                                    OFFSET   5.111620   0.000000   0.000000
                                    CHANNELS 3 Zrotation Xrotation Yrotation
                                    JOINT LeftFinger22
                                    {
                                        OFFSET   2.788150   0.000013   0.000000
                                        CHANNELS 3 Zrotation Xrotation Yrotation
                                        End Site
                                        {
                                            OFFSET   2.727660   0.000000   0.000000
                                        }
                                    }
                                }
                            }
                            JOINT LeftFinger3
                            {
                                OFFSET   7.899780   0.000016  -1.078090
                                CHANNELS 3 Zrotation Xrotation Yrotation
                                JOINT LeftFinger31
                                {
                                    OFFSET   4.646930   0.000000   0.000000
                                    CHANNELS 3 Zrotation Xrotation Yrotation
                                    JOINT LeftFinger32
                                    {
                                        OFFSET   2.323470   0.000000   0.000000
                                        CHANNELS 3 Zrotation Xrotation Yrotation
                                        End Site
                                        {
                                            OFFSET   2.273050   0.000000   0.000000
                                        }
                                    }
                                }
                            }
                            JOINT LeftFinger4
                            {
                                OFFSET   7.435080   0.000000  -3.252850
                                CHANNELS 3 Zrotation Xrotation Yrotation
                                JOINT LeftFinger41
                                {
                                    OFFSET   3.717550   0.000000   0.000000
                                    CHANNELS 3 Zrotation Xrotation Yrotation
                                    JOINT LeftFinger42
                                    {
                                        OFFSET   1.858760   0.000000   0.000000
                                        CHANNELS 3 Zrotation Xrotation Yrotation
                                        End Site
                                        {
                                            OFFSET   1.818440   0.000000   0.000000
                                        }
                                    }
                                }
                            }
                        }
                    }
                }
            }
            JOINT RightCollar
            {
                OFFSET  -3.911900  19.017000  -0.467064
                CHANNELS 3 Zrotation Xrotation Yrotation
                JOINT RightShoulder
                {
                    OFFSET -10.383700   0.000000   0.000000
                    CHANNELS 3 Zrotation Xrotation Yrotation
                    JOINT RightElbow
                    {
                        OFFSET -26.662100   0.001633   0.000260
                        CHANNELS 3 Zrotation Xrotation Yrotation
                        JOINT RightWrist
                        {
                            OFFSET -28.869000  -0.000045  -0.000080
                            CHANNELS 3 Zrotation Xrotation Yrotation
                            JOINT RightFinger0
                            {
                                OFFSET  -2.044660  -2.323490   3.252850
                                CHANNELS 3 Zrotation Xrotation Yrotation
                                JOINT RightFinger01
                                {
                                    OFFSET  -3.088140   0.000000   0.000000
                                    CHANNELS 3 Zrotation Xrotation Yrotation
                                    JOINT RightFinger02
                                    {
                                        OFFSET  -2.639450   0.000000   0.000000
                                        CHANNELS 3 Zrotation Xrotation Yrotation
                                        End Site
                                        {
                                            OFFSET  -2.582190   0.000000   0.000000
                                        }
                                    }
                                }
                            }
                            JOINT RightFinger1
                            {
                                OFFSET  -8.364480   0.000000   3.252850
                                CHANNELS 3 Zrotation Xrotation Yrotation
                                JOINT RightFinger11
                                {
                                    OFFSET  -4.646920   0.000000   0.000000
                                    CHANNELS 3 Zrotation Xrotation Yrotation
                                    JOINT RightFinger12
                                    {
                                        OFFSET  -2.323470   0.000000   0.000000
                                        CHANNELS 3 Zrotation Xrotation Yrotation
                                        End Site
                                        {
                                            OFFSET  -2.273050   0.000000   0.000000
                                        }
                                    }
                                }
                            }
                            JOINT RightFinger2
                            {
                                OFFSET  -8.364480   0.000000   1.078090
                                CHANNELS 3 Zrotation Xrotation Yrotation
                                JOINT RightFinger21
                                {
                                    OFFSET  -5.111610   0.000000   0.000000
                                    CHANNELS 3 Zrotation Xrotation Yrotation
                                    JOINT RightFinger22
                                    {
                                        OFFSET  -2.788160   0.000000   0.000000
                                        CHANNELS 3 Zrotation Xrotation Yrotation
                                        End Site
                                        {
                                            OFFSET  -2.727660   0.000000   0.000000
                                        }
                                    }
                                }
                            }
                            JOINT RightFinger3
                            {
                                OFFSET  -7.899780   0.000000  -1.078090
                                CHANNELS 3 Zrotation Xrotation Yrotation
                                JOINT RightFinger31
                                {
                                    OFFSET  -4.646930   0.000000   0.000000
                                    CHANNELS 3 Zrotation Xrotation Yrotation
                                    JOINT RightFinger32
                                    {
                                        OFFSET  -2.323470   0.000000   0.000000
                                        CHANNELS 3 Zrotation Xrotation Yrotation
                                        End Site
                                        {
                                            OFFSET  -2.273050   0.000000   0.000000
                                        }
                                    }
                                }
                            }
                            JOINT RightFinger4
                            {
                                OFFSET  -7.435090   0.000000  -3.252850
                                CHANNELS 3 Zrotation Xrotation Yrotation
                                JOINT RightFinger41
                                {
                                    OFFSET  -3.717550   0.000000   0.000000
                                    CHANNELS 3 Zrotation Xrotation Yrotation
                                    JOINT RightFinger42
                                    {
                                        OFFSET  -1.858760   0.000000   0.000000
                                        CHANNELS 3 Zrotation Xrotation Yrotation
                                        End Site
                                        {
                                            OFFSET  -1.818440   0.000000   0.000000
                                        }
                                    }
                                }
                            }
                        }
                    }
                }
            }
        }
    }
    JOINT LeftHip
    {
        OFFSET   9.782990   0.000000   0.000000
        CHANNELS 3 Zrotation Xrotation Yrotation
        JOINT LeftKnee
        {
            OFFSET  -0.000063 -41.789100   0.001657
            CHANNELS 3 Zrotation Xrotation Yrotation
            JOINT LeftAnkle
            {
                OFFSET   0.000078 -41.133200  -0.000113
                CHANNELS 3 Zrotation Xrotation Yrotation
                JOINT LeftToe
                {
                    OFFSET   0.000000  -6.358970  14.674500
                    CHANNELS 3 Zrotation Xrotation Yrotation
                    End Site
                    {
                        OFFSET   0.000000   0.000000   3.913200
                    }
                }
            }
        }
    }
    JOINT RightHip
    {
        OFFSET  -9.782990   0.000000   0.000000
        CHANNELS 3 Zrotation Xrotation Yrotation
        JOINT RightKnee
        {
            OFFSET   0.000053 -41.789200   0.000277
            CHANNELS 3 Zrotation Xrotation Yrotation
            JOINT RightAnkle
            {
                OFFSET   0.000030 -41.133200  -0.000150
                CHANNELS 3 Zrotation Xrotation Yrotation
                JOINT RightToe
                {
                    OFFSET   0.000000  -6.358960  14.674500
                    CHANNELS 3 Zrotation Xrotation Yrotation
                    End Site
                    {
                        OFFSET   0.000000   0.000000   3.913200
                    }
                }
            }
        }
    }
}
MOTION
Frames: 6
Frame Time:   0.016667
  1.821510  89.497400   0.999951  -3.998570 -11.639000  -4.979150   0.279108   6.937710   1.561680   0.370122  13.880500   3.123810   0.401395  -0.384123   0.003122   0.661110  -0.768830   0.577533  -5.770700  -1.392730   3.308770 -71.690000  20.106900  -6.386090  -0.023661  -1.831380 -18.319000  11.061700  -4.086980   4.431360  42.040100  38.613100 -70.003600 -32.249600   0.000000   0.000000 -11.124800   0.001546   0.000000 -30.866700   5.242190  -8.691120 -25.580800   0.008205   0.000828 -17.906500   0.011867   0.000463 -28.218800  -1.967250   3.660430 -34.052800  -0.000703   0.001637 -22.679200   0.011032  -0.000819 -27.820000  -1.942290   3.673710 -31.315900  -0.009923   0.000403 -20.856400   0.000569   0.000219 -28.911800  -2.012020   3.636050 -43.476700  -0.002113   0.000177 -28.949800  -0.000314  -0.009949  10.780300   1.516900   9.177420  66.724700   5.197450  -2.085670  -4.924990  -6.007240  16.490200  -9.201940  -0.139622  -0.269921 -41.859800  34.723400  68.164900  27.907600  -0.003738   0.002053   8.953810  -0.001593   0.001672  44.474600  11.480100  11.453300  37.331900  -0.006326   0.004665  27.268800  -0.004985   0.006976  48.065500   4.707160   4.223320  54.379100  -0.005997  -0.000403  39.409100   0.003244   0.008640  49.329100   2.064140   1.774450  54.329100  -0.000113  -0.001756  39.648300  -0.000792  -0.001195  53.121100  -5.790300  -4.326820  80.009800  -0.004634  -0.010376  53.286600  -0.005023  -0.005112   2.555080  15.178600   6.240360   0.531238   0.100942   1.734730  -0.141025  -4.230560   2.845670  -0.000000   0.000000   0.000000   2.403650  13.690500   2.179080  -0.777260   2.344700  -9.517320   1.089420  -4.562720  -0.022186  -0.000000   0.000000  -0.000000
  1.815540  89.497300   0.994516  -4.000590 -11.648000  -4.985310   0.279126   6.943430   1.561510   0.370070  13.891900   3.123470   0.404792  -0.379616   0.003128   0.666008  -0.764174   0.534843  -5.768820  -1.392510   3.308770 -71.687000  20.124300  -6.379610  -0.037210  -1.852860 -18.300700  11.067100  -4.070210   4.425280  42.061200  38.618100 -70.030400 -32.223200   0.000000   0.000047 -11.111600   0.001552  -0.000000 -30.844700   5.263800  -8.734970 -25.566100   0.008205   0.000832 -17.895200   0.011867   0.000466 -28.221800  -1.943510   3.616460 -34.035900  -0.000706   0.001639 -22.667900   0.011036  -0.000819 -27.823000  -1.918910   3.629540 -31.309200  -0.009931   0.000404 -20.852000   0.000564   0.000219 -28.914900  -1.987920   3.592260 -43.473800  -0.002114   0.000180 -28.949800  -0.000314  -0.009948  10.785500   1.509000   9.177390  66.726000   5.188860  -2.088920  -4.905520  -6.006040  16.458900  -9.201690  -0.127635  -0.279003 -41.845200  34.724200  68.172300  27.919100  -0.003734   0.002065   8.959520  -0.001602   0.001660  44.479700  11.480200  11.453400  37.336300  -0.006317   0.004652  27.273100  -0.004981   0.006967  48.061900   4.707210   4.221930  54.379200  -0.005977  -0.000422  39.410900   0.003249   0.008625  49.331100   2.064110   1.772960  54.329200  -0.000113  -0.001759  39.650500  -0.000792  -0.001189  53.127800  -5.793140  -4.328620  80.020200  -0.004635  -0.010376  53.293500  -0.004998  -0.005097   2.559380  15.203700   6.241280   0.530804   0.062768   1.735060  -0.140065  -4.206540   2.845140   0.000000   0.000000   0.000000   2.411020  13.692800   2.179110  -0.775823   2.349460  -9.517410   1.085640  -4.561400  -0.017515  -0.000000   0.000000  -0.000000
  1.805200  89.497200   0.985628  -4.004090 -11.662000  -4.996640   0.279048   6.952640   1.561350   0.369627  13.910300   3.123230   0.412362  -0.372458   0.003139   0.677566  -0.755394   0.455283  -5.765170  -1.392290   3.308770 -71.682200  20.142000  -6.368150  -0.057115  -1.874480 -18.269200  11.081700  -4.042150   4.419140  42.083500  38.620400 -70.059200 -32.195200   0.000000   0.000096 -11.097600   0.001558  -0.000000 -30.816000   5.285400  -8.778830 -25.545300   0.008206   0.000842 -17.881700   0.011868   0.000473 -28.225000  -1.918980   3.571150 -34.013100  -0.000717   0.001642 -22.652700   0.011046  -0.000819 -27.826100  -1.894760   3.584040 -31.299700  -0.009951   0.000406 -20.845600   0.000552   0.000220 -28.918000  -1.962620   3.547380 -43.468200  -0.002116   0.000183 -28.949800  -0.000314  -0.009947  10.795600   1.493390   9.177320  66.731100   5.180260  -2.097340  -4.871990  -6.005580  16.403000  -9.200120  -0.107864  -0.288085 -41.833700  34.718700  68.185100  27.930500  -0.003724   0.002078   8.965230  -0.001621   0.001631  44.487900  11.480300  11.453500  37.343400  -0.006298   0.004626  27.279900  -0.004975   0.006942  48.058500   4.707320   4.218480  54.379300  -0.005931  -0.000468  39.415300   0.003261   0.008587  49.344500   2.064050   1.769150  54.329300  -0.000113  -0.001764  39.656100  -0.000792  -0.001176  53.149300  -5.802190  -4.332910  80.053500  -0.004638  -0.010376  53.315600  -0.004935  -0.005062   2.567320  15.228700   6.242210   0.530370   0.024594   1.735390  -0.139105  -4.182510   2.844610   0.000000   0.000000  -0.000000   2.422860  13.695200   2.179160  -0.773423   2.359970  -9.517540   1.078430  -4.560080  -0.009415   0.000000   0.000000   0.000000
  1.796170  89.497200   0.978734  -4.009310 -11.670400  -5.008040   0.275883   6.959190   1.562710   0.362824  13.923300   3.126430   0.422661  -0.367891   0.003150   0.694398  -0.746673   0.381629  -5.761020  -1.392350   3.305410 -71.677100  20.124600  -6.356440  -0.071299  -1.867310 -18.243600  11.106700  -4.017370   4.425810  42.076200  38.604300 -70.038000 -32.193400   0.000000   0.000099 -11.096600   0.001551  -0.000000 -30.804600   5.283030  -8.777370 -25.535600   0.008214   0.000858 -17.879100   0.011866   0.000479 -28.225200  -1.918080   3.569590 -34.006000  -0.000732   0.001646 -22.648000   0.011061  -0.000814 -27.826400  -1.893880   3.582490 -31.295500  -0.009976   0.000404 -20.841600   0.000537   0.000231 -28.914200  -1.961240   3.546080 -43.461000  -0.002118   0.000182 -28.945900  -0.000315  -0.009946  10.805700   1.478540   9.173370  66.741300   5.189800  -2.105400  -4.840930  -6.013940  16.342300  -9.191380  -0.088713  -0.274273 -41.824000  34.693000  68.185400  27.920100  -0.003709   0.002058   8.960060  -0.001644   0.001585  44.495100  11.480400  11.453600  37.349700  -0.006275   0.004599  27.285900  -0.004975   0.006902  48.093700   4.707490   4.211610  54.379500  -0.005867  -0.000535  39.424200   0.003278   0.008528  49.398300   2.063970   1.761340  54.329400  -0.000110  -0.001772  39.667600  -0.000789  -0.001162  53.194800  -5.821220  -4.340540  80.123500  -0.004644  -0.010371  53.362200  -0.004842  -0.005011   2.575930  15.206100   6.241510   0.532816   0.085131   1.734840  -0.141353  -4.209680   2.847140   0.000000   0.000000   0.000000   2.431210  13.693400   2.179240  -0.771055   2.375100  -9.516320   1.070310  -4.563970  -0.001581   0.000000   0.000000  -0.000000
  1.786570  89.497300   0.972332  -4.015800 -11.678200  -5.020560   0.270550   6.965540   1.567790   0.351278  13.935900   3.137380   0.434778  -0.362918   0.003166   0.714393  -0.735847   0.282573  -5.756780  -1.392780   3.296840 -71.675100  20.107200  -6.346250  -0.083801  -1.860200 -18.213500  11.136200  -3.996630   4.439380  42.062200  38.583000 -70.001400 -32.193100   0.000000   0.000099 -11.096500   0.001535  -0.000000 -30.800600   5.278200  -8.772330 -25.532000   0.008224   0.000878 -17.878700   0.011864   0.000488 -28.225400  -1.917950   3.569370 -34.004900  -0.000754   0.001650 -22.647300   0.011083  -0.000804 -27.826500  -1.893750   3.582260 -31.294100  -0.010011   0.000403 -20.839600   0.000516   0.000247 -28.908800  -1.961040   3.545900 -43.454300  -0.002122   0.000181 -28.940600  -0.000315  -0.009945  10.820600   1.455210   9.167690  66.755600   5.206580  -2.127130  -4.802550  -6.046910  16.294600  -9.170630  -0.077347  -0.260461 -41.783100  34.636600  68.145700  27.909800  -0.003696   0.002029   8.954890  -0.001672   0.001536  44.499200  11.480600  11.453600  37.353300  -0.006245   0.004565  27.289400  -0.004974   0.006853  48.128700   4.707650   4.206800  54.379700  -0.005787  -0.000617  39.430400   0.003300   0.008458  49.440600   2.063890   1.755860  54.329600  -0.000105  -0.001781  39.675700  -0.000786  -0.001143  53.239600  -5.840020  -4.346700  80.192100  -0.004652  -0.010364  53.408000  -0.004728  -0.004949   2.583590  15.183500   6.240820   0.535831   0.145669   1.734070  -0.144973  -4.236840   2.853770  -0.000000   0.000000   0.000000   2.439330  13.691600   2.179290  -0.768705   2.390680  -9.512940   1.061990  -4.569950   0.005249   0.000000   0.000000  -0.000000
  1.776620  89.497600   0.966848  -4.021120 -11.686700  -5.033930   0.265885   6.971770   1.577520   0.340457  13.948200   3.157690   0.446658  -0.355842   0.003197   0.733899  -0.721439   0.147254  -5.753500  -1.396510   3.284670 -71.677800  20.107700  -6.340940  -0.090356  -1.863260 -18.173700  11.166900  -3.988600   4.460070  42.047700  38.567100 -69.969600 -32.199200   0.000000   0.000050 -11.099600   0.001511  -0.000000 -30.803000   5.270670  -8.759540 -25.532300   0.008227   0.000905 -17.879000   0.011864   0.000508 -28.224900  -1.923000   3.578550 -34.015200  -0.000782   0.001652 -22.654100   0.011112  -0.000788 -27.826000  -1.898700   3.591500 -31.299900  -0.010055   0.000404 -20.844600   0.000487   0.000258 -28.906900  -1.966020   3.555120 -43.452000  -0.002125   0.000184 -28.939000  -0.000316  -0.009945  10.842700   1.417890   9.164610  66.773300   5.226050  -2.173900  -4.754640  -6.117840  16.282600  -9.139870  -0.082401  -0.260807 -41.710500  34.540400  68.039000  27.915100  -0.003694   0.002017   8.957550  -0.001706   0.001490  44.496800  11.480700  11.453600  37.351200  -0.006206   0.004518  27.287400  -0.004967   0.006798  48.126500   4.707740   4.207180  54.379900  -0.005691  -0.000708  39.429900   0.003323   0.008384  49.438700   2.063860   1.756120  54.329800  -0.000103  -0.001793  39.675300  -0.000781  -0.001117  53.257500  -5.848030  -4.347780  80.219300  -0.004662  -0.010360  53.426100  -0.004600  -0.004881   2.584190  15.221500   6.242150   0.538568   0.074005   1.733830  -0.148023  -4.197530   2.865010  -0.000000   0.000000   0.000000   2.448270  13.693700   2.179150  -0.766574   2.401360  -9.507450   1.055350  -4.573410   0.008806   0.000000   0.000000   0.000000
